# Blender v2.78 (sub 0) OBJ File: ''
# www.blender.org
o Cube
v 42.274982 -37.907829 21.432381
v 42.274982 -37.907829 -63.117622
v -42.275013 -37.907829 -63.117615
v -42.275002 -37.907829 21.432394
v 77.662521 -10.357835 42.569862
v 77.662460 -10.357835 -84.255165
v -77.662537 -10.357808 -84.255104
v -77.662506 -10.357808 42.569889
v 93.195030 79.892174 55.252365
v 93.194962 79.892174 -96.937675
v -93.195007 79.892189 55.252384
v -93.195053 79.892189 -96.937607
v 93.195030 165.392151 55.252365
v 93.194962 165.392151 -96.937675
v -93.195007 165.392166 55.252384
v -93.195053 165.392166 -96.937607
v 65.236519 189.142151 32.423862
v 65.236465 189.142151 -74.109161
v -65.236511 189.142197 32.423882
v -65.236542 189.142197 -74.109123
v 6.523637 203.392181 -29.765984
v 6.523633 203.392181 -40.419285
v -6.523664 203.392181 -29.765980
v -6.523669 203.392181 -40.419285
v 46.502483 -80.657822 25.659885
v 46.502483 -80.657822 -67.345131
v -46.502506 -80.657822 25.659893
v -46.502522 -80.657822 -67.345116
v 213.911499 -142.407837 193.068863
v 213.911499 -142.407837 -234.754150
v -213.911438 -142.407837 193.068924
v -213.911530 -142.407837 -234.754150
v 213.911499 -332.407837 193.068863
v 213.911499 -332.407837 -234.754150
v -213.911438 -332.407837 193.068924
v -213.911530 -332.407837 -234.754150
v 0.000016 -10.357820 42.569874
v 0.000016 79.892174 55.252373
v 85.428772 34.767170 48.911110
v -85.428764 34.767189 48.911137
v 0.000016 34.767178 48.911125
v -38.831245 -10.357816 42.569878
v -46.597492 79.892189 55.252373
v 89.311897 57.329666 52.081741
v -81.545639 12.204689 45.740513
v 38.831272 -10.357827 42.569870
v 46.597527 79.892174 55.252365
v 81.545639 12.204670 45.740486
v -89.311890 57.329685 52.081760
v 0.000016 57.329674 52.081749
v 19.415644 -10.357825 42.569870
v 42.714397 34.767170 48.911118
v -42.714367 34.767189 48.911137
v -40.772800 12.204689 45.740501
v 40.772839 12.204670 45.740494
v 44.655960 57.329666 52.081741
v -44.655933 57.329685 52.081760
v -0.000012 -37.907829 21.432384
v 59.968758 -24.132828 32.001118
v -59.968750 -24.132816 32.001137
v -58.246872 -10.357812 42.569878
v 19.415644 -10.357825 42.569870
v -19.415613 -10.357818 42.569878
v 58.246899 -10.357829 42.569866
v 19.415644 -10.357825 42.569870
v 0.000016 -10.357820 42.569874
v 0.000016 34.767178 48.911125
v -42.714367 34.767189 48.911137
v -19.415613 -10.357818 42.569878
v -38.831245 -10.357816 42.569878
v 42.714397 34.767170 48.911118
v -40.772800 12.204689 45.740501
v 40.772839 12.204670 45.740494
v 38.831272 -10.357827 42.569870
v 0.000016 -10.357820 42.569874
v 0.000016 34.767178 48.911125
v -42.714367 34.767189 48.911137
v -19.415613 -10.357818 42.569878
v -38.831245 -10.357816 42.569878
v 42.714397 34.767170 48.911118
v -40.772800 12.204689 45.740501
v 40.772839 12.204670 45.740494
v 38.831272 -10.357827 42.569870
v 19.415644 -10.357825 -76.180130
v 0.000016 -10.357820 -76.180130
v 0.000016 12.204679 -73.009506
v 0.000016 34.767178 -69.838875
v -42.714367 34.767189 -69.838860
v -19.415613 -10.357818 -76.180130
v -38.831245 -10.357816 -76.180130
v 42.714397 34.767170 -69.838882
v -40.772800 12.204689 -73.009499
v 40.772839 12.204670 -73.009506
v 38.831272 -10.357827 -76.180130
vt 0.0875 0.2147
vt 0.2784 0.1223
vt 0.0966 0.1223
vt 0.4926 0.7069
vt 0.5203 0.6911
vt 0.4914 0.6911
vt 0.5530 0.6829
vt 0.5470 0.6775
vt 0.4948 0.6812
vt 0.5157 0.6825
vt 0.4719 0.6720
vt 0.4667 0.6783
vt 0.5894 0.3840
vt 0.5064 0.3840
vt 0.5445 0.4522
vt 0.4717 0.7417
vt 0.4578 0.7165
vt 0.5209 0.7062
vt 0.5554 0.6997
vt 0.4596 0.7005
vt 0.4587 0.7085
vt 0.5979 0.5687
vt 0.6818 0.5396
vt 0.5941 0.5396
vt 0.3730 0.8162
vt 0.6970 0.7488
vt 0.3158 0.7488
vt 0.5064 0.5739
vt 0.4111 0.5739
vt 0.5190 0.7187
vt 0.5577 0.7165
vt 0.5058 0.7288
vt 0.5163 0.7232
vt 0.4991 0.7230
vt 0.4963 0.7178
vt 0.5281 0.7435
vt 0.5404 0.7427
vt 0.4862 0.7440
vt 0.0000 1.0000
vt 1.0000 0.0000
vt 0.0000 0.0000
vt 0.5079 0.7307
vt 0.5056 0.7303
vt 0.1996 0.0785
vt 0.2620 0.1483
vt 0.2355 0.0757
vt 0.3375 0.1214
vt 0.0512 0.2156
vt 0.3238 0.2156
vt 0.0000 0.0000
vt 0.0000 1.0000
vt 0.0000 0.0000
vt 0.2816 0.3552
vt 0.2989 0.4291
vt 0.4716 0.4291
vt 0.1324 0.2056
vt 0.1596 0.1381
vt 0.0833 0.0186
vt 0.1813 0.0445
vt 0.3644 0.0446
vt 0.2558 0.0427
vt 0.5356 0.3985
vt -0.0226 0.2513
vt 0.3363 0.3985
vt 0.0000 1.0000
vt 1.0000 0.0000
vt 0.0000 0.0000
vt 0.0117 0.0721
vt 0.2887 0.2056
vt -0.0059 0.2125
vt 0.8194 -0.0068
vt -0.0059 -0.0068
vt 0.4187 0.5396
vt 0.5064 0.5687
vt 0.5064 0.5396
vt 0.5064 0.4522
vt 0.5445 0.4522
vt 0.5903 0.5104
vt 0.6665 0.4813
vt 0.5865 0.4813
vt 0.4683 0.4522
vt 0.5064 0.4522
vt 0.5903 0.5104
vt 0.6589 0.4522
vt 0.6208 0.4522
vt 0.3463 0.4813
vt 0.4225 0.5104
vt 0.4263 0.4813
vt 0.4302 0.4522
vt 0.3920 0.4522
vt 0.4683 0.4522
vt 0.3310 0.5396
vt 0.4149 0.5687
vt 0.3386 0.5104
vt 0.5064 0.5104
vt 0.6742 0.5104
vt 0.4302 0.4522
vt 0.4683 0.4522
vt 0.5064 0.5104
vt 0.4225 0.5104
vt 0.4225 0.5104
vt 0.5827 0.4522
vt 0.5865 0.4813
vt 0.5865 0.4813
vt 0.5064 0.4522
vt 0.4263 0.4813
vt 0.5827 0.4522
vt 0.4225 0.5104
vt 0.4263 0.4813
vt 0.5903 0.5104
vt 0.5064 0.5104
vt 0.5064 0.5104
vt 0.4302 0.4522
vt 0.4302 0.4522
vt 0.5445 0.4522
vt 0.5827 0.4522
vt 0.0513 0.0438
vt 0.1314 0.0729
vt 0.1314 0.0438
vt 0.2115 0.0438
vt 0.2077 0.0147
vt 0.1695 0.0147
vt 0.1314 0.0147
vt 0.0933 0.0147
vt 0.5903 0.5104
vt 0.5064 0.4522
vt 0.5445 0.4522
vt 0.4263 0.4813
vt 0.4683 0.4522
vt 0.5865 0.4813
vt 0.2875 0.2147
vt 0.5411 0.6720
vt 0.4614 0.6846
vt 0.3886 0.4181
vt 0.3539 0.4522
vt 0.4234 0.3840
vt 0.6242 0.4181
vt 0.5542 0.6913
vt 0.5566 0.7081
vt 0.4605 0.6926
vt 0.6894 0.5687
vt 0.6399 0.8162
vt 0.3158 0.5739
vt 0.6017 0.5739
vt 0.6970 0.5739
vt 0.5079 0.7288
vt 1.0000 1.0000
vt 0.0375 0.1214
vt 0.0000 1.0000
vt 0.6443 0.4291
vt 0.6616 0.3552
vt 0.8945 0.2513
vt 1.0000 1.0000
vt 0.4117 0.0992
vt 0.8194 0.2124
vt 0.3234 0.5687
vt 0.0475 0.0729
vt 0.2153 0.0729
vt 0.0552 0.0147
vt 0.5827 0.4522
vn 0.9951 0.0984 0.0000
vn -0.0000 -0.1392 -0.9903
vn 0.6143 -0.7891 -0.0000
vn -0.0000 -0.6087 -0.7934
vn -0.6143 -0.7891 0.0000
vn 0.0000 -0.6087 0.7934
vn -1.0000 0.0000 0.0000
vn 0.9855 -0.1696 -0.0000
vn -0.9855 -0.1696 0.0000
vn 0.0000 -0.1392 0.9903
vn 0.0000 0.6930 0.7210
vn 0.0000 -0.0000 1.0000
vn -0.0000 0.0000 -1.0000
vn 1.0000 0.0000 -0.0000
vn 0.0000 0.9210 -0.3896
vn -0.0000 0.6930 -0.7210
vn 0.6474 0.7621 -0.0000
vn -0.6474 0.7621 0.0000
vn 0.0000 1.0000 -0.0000
vn 0.2359 0.9718 -0.0000
vn -0.2359 0.9718 0.0000
vn 0.0000 0.9747 0.2233
vn 0.0000 0.9382 -0.3461
vn -0.9951 0.0984 0.0000
vn -0.0000 0.0984 -0.9951
vn 0.0000 0.0984 0.9951
vn 0.3461 0.9382 0.0000
vn -0.3461 0.9382 0.0000
vn 0.0000 0.9382 0.3461
vn 0.0000 -1.0000 0.0000
vn -0.9963 0.0857 0.0000
vn 0.9963 0.0857 0.0000
s off
f 25/1/1 2/2/1 1/3/1
f 12/4/2 6/5/2 7/6/2
f 6/5/3 5/7/3 59/8/3
f 3/9/4 6/5/4 2/10/4
f 4/11/5 60/12/5 3/9/5
f 4/13/6 58/14/6 63/15/6
f 15/16/7 12/4/7 11/17/7
f 10/18/8 39/19/8 6/5/8
f 40/20/9 49/21/9 12/4/9
f 43/22/10 49/23/10 57/24/10
f 17/25/11 15/26/11 13/27/11
f 13/27/12 38/28/12 47/29/12
f 12/4/13 14/30/13 10/18/13
f 14/30/14 9/31/14 10/18/14
f 24/32/15 18/33/15 20/34/15
f 20/34/16 14/30/16 16/35/16
f 14/30/17 17/36/17 13/37/17
f 19/38/18 16/35/18 15/16/18
f 22/39/19 23/40/19 21/41/19
f 18/33/20 21/42/20 17/36/20
f 23/43/21 20/34/21 19/38/21
f 21/42/22 19/38/22 17/36/22
f 26/44/23 32/45/23 28/46/23
f 28/47/24 4/48/24 3/49/24
f 26/50/25 3/51/25 2/52/25
f 25/53/26 1/54/26 58/55/26
f 34/56/13 32/45/13 30/57/13
f 29/58/27 26/44/27 25/59/27
f 28/46/28 31/60/28 27/61/28
f 27/62/29 29/63/29 25/64/29
f 35/65/30 34/66/30 33/67/30
f 33/68/14 30/57/14 29/58/14
f 36/69/7 31/60/7 32/45/7
f 35/70/12 29/71/12 31/72/12
f 56/73/10 38/74/10 50/75/10
f 37/76/12 69/77/12 63/15/12
f 53/78/10 45/79/10 54/80/10
f 62/81/12 66/82/12 37/76/12
f 54/80/12 68/83/12 53/78/12
f 45/79/10 8/84/10 61/85/10
f 48/86/10 52/87/10 55/88/10
f 55/88/10 46/89/10 64/90/10
f 46/89/12 65/91/12 62/81/12
f 44/92/10 47/93/10 56/73/10
f 39/94/10 56/73/10 52/87/10
f 52/87/10 50/75/10 41/95/10
f 38/74/10 57/24/10 50/75/10
f 50/75/10 53/78/10 41/95/10
f 57/24/10 40/96/10 53/78/10
f 74/97/12 51/98/12 65/91/12
f 67/99/12 80/100/12 71/101/12
f 70/102/12 81/103/12 72/104/12
f 65/91/12 75/105/12 66/82/12
f 53/78/12 67/99/12 41/95/12
f 52/87/12 73/106/12 55/88/12
f 42/107/12 72/104/12 54/80/12
f 41/95/12 71/101/12 52/87/12
f 55/88/12 74/97/12 46/89/12
f 63/15/12 70/102/12 42/107/12
f 91/108/31 82/109/31 80/100/31
f 77/110/30 87/111/30 76/112/30
f 94/113/19 51/98/19 83/114/19
f 87/111/30 80/100/30 76/112/30
f 68/83/12 76/112/12 67/99/12
f 71/101/12 82/109/12 73/106/12
f 72/104/12 77/110/12 68/83/12
f 66/82/12 78/115/12 69/77/12
f 69/77/12 79/116/12 70/102/12
f 73/106/12 83/114/12 74/97/12
f 93/117/10 87/118/10 86/119/10
f 87/118/10 92/120/10 86/119/10
f 92/120/10 90/121/10 89/122/10
f 86/119/10 85/123/10 84/124/10
f 81/103/32 88/125/32 77/110/32
f 85/126/19 78/115/19 75/105/19
f 89/127/19 79/116/19 78/115/19
f 93/128/31 83/114/31 82/109/31
f 84/129/19 75/105/19 51/98/19
f 79/116/32 92/130/32 81/103/32
f 25/1/1 26/131/1 2/2/1
f 12/4/2 10/18/2 6/5/2
f 59/8/3 1/132/3 2/10/3
f 2/10/3 6/5/3 59/8/3
f 3/9/4 7/6/4 6/5/4
f 7/6/5 3/9/5 60/12/5
f 60/12/5 8/133/5 7/6/5
f 59/134/6 5/135/6 64/90/6
f 64/90/6 46/89/6 59/134/6
f 62/81/6 37/76/6 58/14/6
f 37/76/6 63/15/6 58/14/6
f 59/134/6 46/89/6 1/136/6
f 58/14/6 1/136/6 62/81/6
f 60/137/6 4/13/6 42/107/6
f 61/85/6 8/84/6 60/137/6
f 46/89/6 62/81/6 1/136/6
f 42/107/6 61/85/6 60/137/6
f 4/13/6 63/15/6 42/107/6
f 15/16/7 16/35/7 12/4/7
f 5/7/8 6/5/8 48/138/8
f 10/18/8 9/31/8 44/139/8
f 39/19/8 48/138/8 6/5/8
f 10/18/8 44/139/8 39/19/8
f 7/6/9 8/133/9 45/140/9
f 45/140/9 40/20/9 7/6/9
f 49/21/9 11/17/9 12/4/9
f 12/4/9 7/6/9 40/20/9
f 43/22/10 11/141/10 49/23/10
f 17/25/11 19/142/11 15/26/11
f 47/29/12 9/143/12 13/27/12
f 13/27/12 15/26/12 38/28/12
f 43/144/12 38/28/12 15/26/12
f 15/26/12 11/145/12 43/144/12
f 12/4/13 16/35/13 14/30/13
f 14/30/14 13/37/14 9/31/14
f 24/32/15 22/146/15 18/33/15
f 20/34/16 18/33/16 14/30/16
f 14/30/17 18/33/17 17/36/17
f 19/38/18 20/34/18 16/35/18
f 22/39/19 24/147/19 23/40/19
f 18/33/20 22/146/20 21/42/20
f 23/43/21 24/32/21 20/34/21
f 21/42/22 23/43/22 19/38/22
f 26/44/23 30/57/23 32/45/23
f 28/47/24 27/148/24 4/48/24
f 26/50/25 28/149/25 3/51/25
f 58/55/26 4/150/26 27/151/26
f 27/151/26 25/53/26 58/55/26
f 34/56/13 36/69/13 32/45/13
f 29/58/27 30/57/27 26/44/27
f 28/46/28 32/45/28 31/60/28
f 27/62/29 31/152/29 29/63/29
f 35/65/30 36/153/30 34/66/30
f 33/68/14 34/56/14 30/57/14
f 36/69/7 35/154/7 31/60/7
f 35/70/12 33/155/12 29/71/12
f 56/73/10 47/93/10 38/74/10
f 37/76/12 66/82/12 69/77/12
f 53/78/10 40/96/10 45/79/10
f 62/81/12 65/91/12 66/82/12
f 54/80/12 72/104/12 68/83/12
f 61/85/10 42/107/10 54/80/10
f 54/80/10 45/79/10 61/85/10
f 48/86/10 39/94/10 52/87/10
f 64/90/10 5/135/10 48/86/10
f 48/86/10 55/88/10 64/90/10
f 46/89/12 74/97/12 65/91/12
f 44/92/10 9/156/10 47/93/10
f 39/94/10 44/92/10 56/73/10
f 52/87/10 56/73/10 50/75/10
f 38/74/10 43/22/10 57/24/10
f 50/75/10 57/24/10 53/78/10
f 57/24/10 49/23/10 40/96/10
f 74/97/12 83/114/12 51/98/12
f 67/99/12 76/112/12 80/100/12
f 70/102/12 79/116/12 81/103/12
f 65/91/12 51/98/12 75/105/12
f 53/78/12 68/83/12 67/99/12
f 52/87/12 71/101/12 73/106/12
f 42/107/12 70/102/12 72/104/12
f 41/95/12 67/99/12 71/101/12
f 55/88/12 73/106/12 74/97/12
f 63/15/12 69/77/12 70/102/12
f 91/108/31 93/128/31 82/109/31
f 77/110/30 88/125/30 87/111/30
f 94/113/19 84/129/19 51/98/19
f 87/111/30 91/108/30 80/100/30
f 68/83/12 77/110/12 76/112/12
f 71/101/12 80/100/12 82/109/12
f 72/104/12 81/103/12 77/110/12
f 66/82/12 75/105/12 78/115/12
f 69/77/12 78/115/12 79/116/12
f 73/106/12 82/109/12 83/114/12
f 93/117/10 91/157/10 87/118/10
f 87/118/10 88/158/10 92/120/10
f 89/122/10 85/123/10 86/119/10
f 86/119/10 92/120/10 89/122/10
f 84/124/10 94/159/10 93/117/10
f 93/117/10 86/119/10 84/124/10
f 81/103/32 92/130/32 88/125/32
f 85/126/19 89/127/19 78/115/19
f 89/127/19 90/160/19 79/116/19
f 93/128/31 94/113/31 83/114/31
f 84/129/19 85/126/19 75/105/19
f 79/116/32 90/160/32 92/130/32
