# Blender v2.78 (sub 0) OBJ File: ''
# www.blender.org
v 21.427074 -56.801945 -64.891182
v 21.427074 -56.801945 -22.040684
v -21.423431 -56.801945 -22.040688
v -21.423420 -56.801945 -64.891197
v 21.427086 -13.951447 -64.891174
v 21.427061 -13.951447 -22.040668
v -21.423435 -13.951447 -22.040691
v -21.423426 -13.951447 -64.891182
v 1.285348 -56.801933 -113.741798
v -1.281671 -56.801933 -113.741798
v 1.285348 -13.951436 -113.741783
v -1.281671 -13.951436 -113.741798
v 21.427053 -56.801960 44.956982
v -21.423450 -56.801960 44.956974
v 21.427040 -13.951456 44.956993
v -21.423456 -13.951456 44.956974
v 21.427040 -56.801968 89.902611
v -21.423464 -56.801968 89.902611
v 21.427027 -13.951462 89.902626
v -21.423470 -13.951462 89.902611
v 3.236018 -56.801968 137.292542
v -3.232484 -56.801968 137.292542
v 3.236017 -13.951466 137.292557
v -3.232485 -13.951466 137.292542
v 18.402386 -13.951447 -60.234562
v 18.402363 -13.951447 -19.979740
v -18.398733 -13.951447 -60.234566
v -18.398743 -13.951447 -19.979759
v 18.402344 -13.951456 42.959515
v -18.398760 -13.951456 42.959507
v 18.402332 -13.951462 85.182556
v -18.398771 -13.951462 85.182541
v 18.402386 -22.996769 -60.234562
v 18.402363 -22.996769 -19.979740
v -18.398733 -22.996769 -60.234566
v -18.398743 -22.996769 -19.979759
v 18.402344 -22.996780 42.959515
v -18.398760 -22.996780 42.959507
v 18.402332 -22.996784 85.182556
v -18.398771 -22.996784 85.182541
v 15.370564 -22.996773 -14.794596
v -15.366946 -22.996773 -14.794611
v 15.370549 -22.996777 37.774376
v -15.366961 -22.996777 37.774364
v 15.370564 18.512793 -14.794596
v -15.366946 18.512793 -14.794611
v 15.370549 18.512783 37.774376
v -15.366961 18.512783 37.774364
v -0.220581 16.949995 12.869547
v 0.001802 15.015158 6.771656
v 0.001802 71.172714 6.771656
v 1.222969 15.015158 6.932424
v 1.222969 71.172714 6.932424
v 2.360917 15.015158 7.403781
v 2.360917 71.172714 7.403781
v 3.338094 15.015158 8.153594
v 3.338094 71.172714 8.153594
v 4.087909 15.015158 9.130771
v 4.087909 71.172714 9.130771
v 4.559261 15.015158 10.268720
v 4.559261 71.172714 10.268720
v 4.720031 15.015158 11.489885
v 4.720031 71.172714 11.489885
v 4.559262 15.015158 12.711052
v 4.559262 71.172714 12.711052
v 4.087909 15.015158 13.849001
v 4.087909 71.172714 13.849001
v 3.338095 15.015158 14.826178
v 3.338095 71.172714 14.826178
v 2.360918 15.015158 15.575991
v 2.360918 71.172714 15.575991
v 1.222971 15.015158 16.047348
v 1.222971 71.172714 16.047348
v 0.001803 15.015158 16.208115
v 0.001803 71.172714 16.208115
v -1.219364 15.015158 16.047348
v -1.219364 71.172714 16.047348
v -2.357311 15.015158 15.575994
v -2.357311 71.172714 15.575994
v -3.334489 15.015158 14.826181
v -3.334489 71.172714 14.826181
v -4.084304 15.015158 13.849001
v -4.084304 71.172714 13.849001
v -4.555658 15.015158 12.711056
v -4.555658 71.172714 12.711056
v -4.716428 15.015158 11.489885
v -4.716428 71.172714 11.489885
v -4.555659 15.015158 10.268720
v -4.555659 71.172714 10.268720
v -4.084307 15.015158 9.130775
v -4.084307 71.172714 9.130775
v -3.334493 15.015158 8.153594
v -3.334493 71.172714 8.153594
v -2.357316 15.015158 7.403781
v -2.357316 71.172714 7.403781
v -1.219369 15.015158 6.932428
v -1.219369 71.172714 6.932428
vt 0.5489 0.1479
vt 0.6965 0.0003
vt 0.6965 0.1479
vt 0.3858 0.3574
vt 0.5173 0.3678
vt 0.3787 0.3678
vt 0.5333 0.8014
vt 0.3858 0.6539
vt 0.5333 0.6539
vt 0.3183 0.0003
vt 0.5489 0.0003
vt 0.3858 0.6532
vt 0.5333 0.5057
vt 0.5333 0.6532
vt 0.8647 0.0785
vt 0.7159 0.3574
vt 0.7248 0.5050
vt 0.7159 0.5050
vt 0.5340 0.3574
vt 0.5340 0.5050
vt 0.8252 0.8221
vt 0.7470 0.6539
vt 0.7558 0.6539
vt 0.9067 0.5050
vt 0.7248 0.3574
vt 0.9067 0.3574
vt 0.1551 0.5050
vt 0.0166 0.4945
vt 0.1620 0.4945
vt 0.1551 0.3574
vt 0.1620 0.3678
vt 0.1551 0.5057
vt 0.3858 0.5057
vt 0.3858 0.8014
vt 0.1551 0.6539
vt 0.9058 0.6532
vt 0.7311 0.5057
vt 0.9058 0.5057
vt 0.1551 0.8014
vt 0.0003 0.6539
vt 0.1551 0.6532
vt 0.0003 0.5057
vt 0.1635 0.1479
vt 0.1635 0.0003
vt 0.7088 0.5057
vt 0.7311 0.6532
vt 0.7088 0.6532
vt 0.0003 0.0853
vt 0.0003 0.0630
vt 0.7456 0.1486
vt 0.8305 0.3117
vt 0.8082 0.3117
vt 0.5340 0.5057
vt 0.5340 0.6532
vt 0.5218 0.2010
vt 0.5632 0.3526
vt 0.5192 0.3279
vt 0.3969 0.1838
vt 0.5548 0.1719
vt 0.1551 0.1858
vt 0.3995 0.1486
vt 0.3787 0.4945
vt 0.3858 0.5050
vt 0.0166 0.3678
vt 0.0003 0.3574
vt 0.5173 0.4945
vt 0.5333 0.5050
vt 0.0003 0.5050
vt 0.5333 0.3574
vt 0.5010 0.8021
vt 0.3624 0.9288
vt 0.3624 0.8021
vt 0.1457 0.9288
vt 0.0003 0.8021
vt 0.1457 0.8021
vt 0.3446 0.9184
vt 0.0374 0.2262
vt 0.1472 0.1486
vt 0.4161 0.3267
vt 0.2333 0.3483
vt 0.2368 0.3175
vt 0.4161 0.3567
vt 0.0362 0.3331
vt 0.0553 0.3027
vt 0.0003 0.2112
vt 0.6769 0.8349
vt 0.5340 0.6539
vt 0.6769 0.6539
vt 0.3446 0.8126
vt 0.1636 0.8126
vt 0.1636 0.9184
vt 0.9997 0.1486
vt 0.8938 0.3296
vt 0.8938 0.1486
vt 0.7835 0.8228
vt 0.6776 0.9657
vt 0.6776 0.8228
vt 0.7449 0.1486
vt 0.5639 0.2915
vt 0.5639 0.1486
vt 0.9712 0.0003
vt 0.8654 0.1433
vt 0.8654 0.0003
vt 0.8980 0.8472
vt 0.8937 0.6539
vt 0.8980 0.6539
vt 0.8937 0.8472
vt 0.8895 0.6539
vt 0.8895 0.8472
vt 0.8852 0.6539
vt 0.8852 0.8472
vt 0.8810 0.6539
vt 0.8810 0.8472
vt 0.8767 0.6539
vt 0.8767 0.8472
vt 0.8725 0.6539
vt 0.8725 0.8472
vt 0.8683 0.6539
vt 0.8683 0.8472
vt 0.8640 0.6539
vt 0.8640 0.8472
vt 0.8598 0.6539
vt 0.8598 0.8472
vt 0.8555 0.6539
vt 0.8555 0.8472
vt 0.8513 0.6539
vt 0.8513 0.8472
vt 0.8471 0.6539
vt 0.8471 0.8472
vt 0.8428 0.6539
vt 0.8428 0.8472
vt 0.8386 0.6539
vt 0.8386 0.8472
vt 0.8343 0.6539
vt 0.8343 0.8472
vt 0.8301 0.6539
vt 0.8301 0.8472
vt 0.8259 0.6539
vt 0.9276 0.8472
vt 0.9234 0.6539
vt 0.9276 0.6539
vt 0.9234 0.8472
vt 0.9192 0.6539
vt 0.9192 0.8472
vt 0.9149 0.6539
vt 0.9149 0.8472
vt 0.9107 0.6539
vt 0.9107 0.8472
vt 0.9064 0.6539
vt 0.5650 0.3145
vt 0.5821 0.2922
vt 0.5929 0.3182
vt 0.9064 0.8472
vt 0.9022 0.6539
vt 0.9022 0.8472
vt 0.6258 0.3182
vt 0.5979 0.3145
vt 0.6150 0.2922
vt 0.3183 0.1479
vt 0.8647 0.0697
vt 0.6776 0.8221
vt 0.0003 0.8014
vt 0.0003 0.6532
vt 0.8931 0.1486
vt 0.5010 0.9288
vt 0.0003 0.9288
vt 0.5340 0.8349
vt 0.9997 0.3296
vt 0.7835 0.9657
vt 0.7449 0.2915
vt 0.9712 0.1433
vt 0.8259 0.8472
vt 0.5899 0.3212
vt 0.5862 0.3233
vt 0.5821 0.3244
vt 0.5779 0.3244
vt 0.5738 0.3233
vt 0.5701 0.3212
vt 0.5671 0.3182
vt 0.5639 0.3104
vt 0.5639 0.3062
vt 0.5650 0.3021
vt 0.5671 0.2984
vt 0.5701 0.2954
vt 0.5738 0.2933
vt 0.5779 0.2922
vt 0.5862 0.2933
vt 0.5899 0.2954
vt 0.5929 0.2984
vt 0.5950 0.3021
vt 0.5961 0.3062
vt 0.5961 0.3104
vt 0.5950 0.3145
vt 0.6191 0.2933
vt 0.6228 0.2954
vt 0.6258 0.2984
vt 0.6279 0.3021
vt 0.6290 0.3062
vt 0.6290 0.3104
vt 0.6279 0.3145
vt 0.6228 0.3212
vt 0.6191 0.3233
vt 0.6150 0.3244
vt 0.6108 0.3244
vt 0.6067 0.3233
vt 0.6030 0.3212
vt 0.6000 0.3182
vt 0.5968 0.3104
vt 0.6000 0.2984
vt 0.5968 0.3062
vt 0.5979 0.3021
vt 0.6030 0.2954
vt 0.6067 0.2933
vt 0.6108 0.2922
vn 0.0000 -1.0000 0.0000
vn 0.0000 1.0000 0.0000
vn 1.0000 -0.0000 0.0000
vn -1.0000 -0.0000 -0.0000
vn 0.0000 0.0000 -1.0000
vn 0.9245 -0.0000 -0.3812
vn -0.9245 0.0000 -0.3812
vn -0.9336 -0.0000 0.3584
vn 0.0000 -0.0000 1.0000
vn 0.9336 0.0000 0.3584
vn 0.1305 0.0000 -0.9914
vn 0.3827 0.0000 -0.9239
vn 0.6088 0.0000 -0.7934
vn 0.7934 0.0000 -0.6088
vn 0.9239 0.0000 -0.3827
vn 0.9914 0.0000 -0.1305
vn 0.9914 0.0000 0.1305
vn 0.9239 0.0000 0.3827
vn 0.7934 0.0000 0.6088
vn 0.6088 0.0000 0.7934
vn 0.3827 0.0000 0.9239
vn 0.1305 0.0000 0.9914
vn -0.1305 0.0000 0.9914
vn -0.3827 0.0000 0.9239
vn -0.6088 0.0000 0.7934
vn -0.7934 0.0000 0.6088
vn -0.9239 0.0000 0.3827
vn -0.9914 0.0000 0.1305
vn -0.9914 0.0000 -0.1305
vn -0.9239 0.0000 -0.3827
vn -0.7934 0.0000 -0.6088
vn -0.6088 0.0000 -0.7934
vn -0.3827 0.0000 -0.9239
vn -0.1305 0.0000 -0.9914
vn 0.0000 1.0000 0.0001
vn 0.0000 1.0000 -0.0001
s off
f 2/1/1 4/2/1 1/3/1
f 6/4/2 25/5/2 26/6/2
f 5/7/3 2/8/3 1/9/3
f 2/1/1 14/10/1 3/11/1
f 3/12/4 8/13/4 4/14/4
f 4/2/1 9/15/1 1/3/1
f 9/16/5 12/17/5 11/18/5
f 1/19/6 11/18/6 5/20/6
f 8/21/2 11/22/2 12/23/2
f 8/24/7 10/25/7 4/26/7
f 16/27/2 32/28/2 30/29/2
f 15/30/2 26/6/2 29/31/2
f 3/12/4 16/32/4 7/33/4
f 6/34/3 13/35/3 2/8/3
f 18/36/8 24/37/8 20/38/8
f 15/39/3 17/40/3 13/35/3
f 14/41/4 20/42/4 16/32/4
f 14/10/1 17/43/1 18/44/1
f 23/45/9 22/46/9 21/47/9
f 18/44/1 21/48/1 22/49/1
f 19/50/2 24/51/2 23/52/2
f 19/53/10 21/47/10 17/54/10
f 27/55/9 33/56/9 25/57/9
f 28/58/3 35/59/3 27/55/3
f 30/60/3 36/61/3 28/58/3
f 16/27/2 28/62/2 7/63/2
f 15/30/2 31/64/2 19/65/2
f 7/63/2 27/66/2 8/67/2
f 19/65/2 32/28/2 20/68/2
f 8/67/2 25/5/2 5/69/2
f 33/70/2 36/71/2 34/72/2
f 38/73/2 39/74/2 37/75/2
f 38/73/2 42/76/2 36/71/2
f 32/77/3 38/78/3 30/60/3
f 26/79/4 37/80/4 29/81/4
f 25/57/4 34/82/4 26/79/4
f 29/81/4 39/83/4 31/84/4
f 31/84/5 40/85/5 32/77/5
f 44/86/4 46/87/4 42/88/4
f 37/75/2 41/89/2 43/90/2
f 37/75/2 44/91/2 38/73/2
f 36/71/2 41/89/2 34/72/2
f 46/92/2 47/93/2 45/94/2
f 42/95/5 45/96/5 41/97/5
f 41/98/3 47/99/3 43/100/3
f 43/101/9 48/102/9 44/103/9
f 51/104/11 52/105/11 50/106/11
f 53/107/12 54/108/12 52/105/12
f 55/109/13 56/110/13 54/108/13
f 57/111/14 58/112/14 56/110/14
f 59/113/15 60/114/15 58/112/15
f 61/115/16 62/116/16 60/114/16
f 63/117/17 64/118/17 62/116/17
f 65/119/18 66/120/18 64/118/18
f 67/121/19 68/122/19 66/120/19
f 69/123/20 70/124/20 68/122/20
f 71/125/21 72/126/21 70/124/21
f 73/127/22 74/128/22 72/126/22
f 75/129/23 76/130/23 74/128/23
f 77/131/24 78/132/24 76/130/24
f 79/133/25 80/134/25 78/132/25
f 81/135/26 82/136/26 80/134/26
f 83/137/27 84/138/27 82/136/27
f 85/139/28 86/140/28 84/141/28
f 87/142/29 88/143/29 86/140/29
f 89/144/30 90/145/30 88/143/30
f 91/146/31 92/147/31 90/145/31
f 93/148/32 94/149/32 92/147/32
f 87/150/2 71/151/2 55/152/2
f 95/153/33 96/154/33 94/149/33
f 97/155/34 50/106/34 96/154/34
f 64/156/1 80/157/1 96/158/1
f 2/1/1 3/11/1 4/2/1
f 6/4/2 5/69/2 25/5/2
f 5/7/3 6/34/3 2/8/3
f 2/1/1 13/159/1 14/10/1
f 3/12/4 7/33/4 8/13/4
f 4/2/1 10/160/1 9/15/1
f 9/16/5 10/25/5 12/17/5
f 1/19/6 9/16/6 11/18/6
f 8/21/2 5/161/2 11/22/2
f 8/24/7 12/17/7 10/25/7
f 16/27/2 20/68/2 32/28/2
f 15/30/2 6/4/2 26/6/2
f 3/12/4 14/41/4 16/32/4
f 6/34/3 15/39/3 13/35/3
f 18/36/8 22/46/8 24/37/8
f 15/39/3 19/162/3 17/40/3
f 14/41/4 18/163/4 20/42/4
f 14/10/1 13/159/1 17/43/1
f 23/45/9 24/37/9 22/46/9
f 18/44/1 17/43/1 21/48/1
f 19/50/2 20/164/2 24/51/2
f 19/53/10 23/45/10 21/47/10
f 27/55/9 35/59/9 33/56/9
f 28/58/3 36/61/3 35/59/3
f 30/60/3 38/78/3 36/61/3
f 16/27/2 30/29/2 28/62/2
f 15/30/2 29/31/2 31/64/2
f 7/63/2 28/62/2 27/66/2
f 19/65/2 31/64/2 32/28/2
f 8/67/2 27/66/2 25/5/2
f 33/70/2 35/165/2 36/71/2
f 38/73/2 40/166/2 39/74/2
f 38/73/2 44/91/2 42/76/2
f 32/77/3 40/85/3 38/78/3
f 26/79/4 34/82/4 37/80/4
f 25/57/4 33/56/4 34/82/4
f 29/81/4 37/80/4 39/83/4
f 31/84/5 39/83/5 40/85/5
f 44/86/4 48/167/4 46/87/4
f 37/75/2 34/72/2 41/89/2
f 37/75/2 43/90/2 44/91/2
f 36/71/2 42/76/2 41/89/2
f 46/92/2 48/168/2 47/93/2
f 42/95/5 46/169/5 45/96/5
f 41/98/3 45/170/3 47/99/3
f 43/101/9 47/171/9 48/102/9
f 51/104/11 53/107/11 52/105/11
f 53/107/12 55/109/12 54/108/12
f 55/109/13 57/111/13 56/110/13
f 57/111/14 59/113/14 58/112/14
f 59/113/15 61/115/15 60/114/15
f 61/115/16 63/117/16 62/116/16
f 63/117/17 65/119/17 64/118/17
f 65/119/18 67/121/18 66/120/18
f 67/121/19 69/123/19 68/122/19
f 69/123/20 71/125/20 70/124/20
f 71/125/21 73/127/21 72/126/21
f 73/127/22 75/129/22 74/128/22
f 75/129/23 77/131/23 76/130/23
f 77/131/24 79/133/24 78/132/24
f 79/133/25 81/135/25 80/134/25
f 81/135/26 83/137/26 82/136/26
f 83/137/27 85/172/27 84/138/27
f 85/139/28 87/142/28 86/140/28
f 87/142/29 89/144/29 88/143/29
f 89/144/30 91/146/30 90/145/30
f 91/146/31 93/148/31 92/147/31
f 93/148/32 95/153/32 94/149/32
f 55/152/35 53/173/35 51/174/35
f 51/174/2 97/175/2 55/152/2
f 95/176/2 93/177/2 91/178/2
f 91/178/2 89/179/2 87/150/2
f 87/150/2 85/180/2 83/181/2
f 83/181/2 81/182/2 79/183/2
f 79/183/36 77/184/36 75/185/36
f 75/185/2 73/186/2 71/151/2
f 71/151/2 69/187/2 67/188/2
f 67/188/2 65/189/2 71/151/2
f 63/190/2 61/191/2 55/152/2
f 59/192/2 57/193/2 55/152/2
f 55/152/2 97/175/2 95/176/2
f 95/176/2 91/178/2 55/152/2
f 87/150/2 83/181/2 71/151/2
f 79/183/2 75/185/2 71/151/2
f 71/151/2 65/189/2 63/190/2
f 61/191/2 59/192/2 55/152/2
f 55/152/2 91/178/2 87/150/2
f 83/181/2 79/183/2 71/151/2
f 71/151/2 63/190/2 55/152/2
f 95/153/33 97/155/33 96/154/33
f 97/155/34 51/104/34 50/106/34
f 96/158/1 50/194/1 52/195/1
f 52/195/1 54/196/1 96/158/1
f 56/197/1 58/198/1 60/199/1
f 60/199/1 62/200/1 64/156/1
f 64/156/1 66/201/1 68/202/1
f 68/202/1 70/203/1 64/156/1
f 72/204/1 74/205/1 70/203/1
f 76/206/1 78/207/1 80/157/1
f 80/157/1 82/208/1 88/209/1
f 84/210/1 86/211/1 88/209/1
f 88/209/1 90/212/1 96/158/1
f 92/213/1 94/214/1 96/158/1
f 96/158/1 54/196/1 56/197/1
f 56/197/1 60/199/1 96/158/1
f 64/156/1 70/203/1 74/205/1
f 74/205/1 76/206/1 80/157/1
f 82/208/1 84/210/1 88/209/1
f 90/212/1 92/213/1 96/158/1
f 96/158/1 60/199/1 64/156/1
f 64/156/1 74/205/1 80/157/1
f 80/157/1 88/209/1 96/158/1
